<svg width="122" height="270" viewBox="0 0 122 270" fill="none" xmlns="http://www.w3.org/2000/svg">
<g clip-path="url(#clip0_12_17)">
<path d="M93.9946 261.771L96.5803 218.633L103.72 206.43C103.72 206.43 87.4701 213.086 60.265 213.086C33.0595 213.086 17.0559 206.553 17.0559 206.553L25.0575 219.864L27.8881 261.771C27.8881 266.263 42.6863 269.905 60.9416 269.905C79.196 269.905 93.9946 266.263 93.9946 261.771ZM85.8382 60.3226L91.2655 38.8442L121.321 7.18075L113.399 0.425507L81.5797 34.155L75.2781 59.816C70.5354 59.6569 65.7903 59.5778 61.045 59.5789C27.5331 59.5789 0.366211 63.4028 0.366211 68.1187C0.366211 72.8351 27.5331 76.6585 61.045 76.6585C94.5564 76.6585 121.723 72.8351 121.723 68.1187C121.723 64.6459 106.989 61.6568 85.8382 60.3226Z" fill="#D34A47"/>
<path d="M82.6819 72.351C82.6819 72.351 81.5065 72.6148 78.0488 72.6295C74.5903 72.6439 72.1346 72.6071 71.1564 71.7151C70.8934 71.4756 70.7496 71 70.751 70.678C70.7538 70.065 71.1884 69.7039 71.742 69.4778L72.2656 70.3002C72.0379 70.3789 71.9078 70.4719 71.9073 70.5712C71.9054 71.0367 75.4436 71.3554 78.1498 71.321C80.8566 71.2877 84.127 71.0644 84.1298 70.6055C84.1298 70.4667 83.8825 70.336 83.4523 70.2329L83.9735 69.4163C84.6749 69.6343 85.2871 70.0555 85.2857 70.7844C85.279 72.0237 83.7039 72.2121 82.6819 72.351Z" fill="white"/>
<path d="M121.261 7.24326C122.017 6.36934 120.87 4.13397 118.7 2.25113C116.529 0.369236 114.156 -0.448396 113.399 0.425526C112.643 1.29945 113.79 3.53482 115.961 5.41671C118.132 7.29908 120.505 8.11766 121.261 7.24326ZM92.5488 156.402C91.8365 149.54 107.539 139.603 103.509 139.285C94.8339 139.781 90.5163 149.464 86.1515 159.604C84.552 163.321 79.079 179.169 75.4894 177.218C71.9008 175.268 80.142 162.236 82.4518 154.496C79.7866 156.453 70.0121 164.057 67.4931 156.936C63.4432 160.38 54.7894 162.245 55.7657 153.199C53.6111 157.02 48.7756 162.355 42.9714 160.138C35.3491 157.228 47.3882 132.918 50.3817 134.144C53.3758 135.37 49.7776 140.908 48.8352 143.059C46.7626 147.791 44.3684 153.741 45.9679 154.959C48.708 157.045 56.1645 147.065 56.3303 146.846C57.7248 145.001 61.698 132.933 64.9002 134.318C68.1025 135.704 56.913 151.638 61.0967 154.801C61.9405 155.439 65.3929 154.407 67.4931 152.132C68.8519 150.66 68.3845 147.401 72.9142 136.586C77.4438 125.771 81.4808 112.302 84.5873 113.328C87.6938 114.354 85.1333 121.267 84.0189 123.844C78.7893 135.938 69.7462 155.92 74.011 154.407C78.2757 152.895 80.4965 152.806 84.6726 147.913C88.8487 143.02 88.6562 134.961 91.4397 135.132C94.2241 135.304 93.7567 137.888 93.0815 139.856C95.8211 136.717 106.068 130.106 108.541 136.653C111.472 144.405 93.8815 155.601 98.2672 155.03C102.543 154.473 109.471 150.08 112.429 146.086L120.571 72.8017C120.571 72.8017 112.378 79.5899 60.2567 79.5899C8.13505 79.5899 0.790039 72.9429 0.790039 72.9429L7.72149 139.834C11.4007 129.365 20.1374 108.188 33.9088 108.899C40.1732 109.223 48.536 121.3 41.3725 121.709C38.3403 121.882 38.0325 115.681 34.442 114.77C31.851 114.113 28.2438 116.222 25.9125 118.507C21.2633 123.062 11.2639 141.036 12.5851 149.997C14.2684 161.422 28.331 146.028 30.7104 141.457C32.3861 138.238 33.5181 128.699 37.183 129.7C40.8484 130.701 36.8633 140.545 34.2066 149.248C31.2221 159.021 29.6531 169.33 25.9125 168.144C22.1714 166.959 28.2652 154.343 28.0446 152.132C24.5284 155.38 18.0505 163.603 9.76309 159.533L14.0679 201.072C14.0679 201.072 25.5089 210.123 59.9742 210.123C94.4394 210.123 106.304 201.213 106.304 201.213L111.649 153.101C107.276 157.365 93.4351 164.937 92.5488 156.402Z" fill="#D34A47"/>
</g>
<defs>
<clipPath id="clip0_12_17">
<rect width="122" height="270" fill="white"/>
</clipPath>
</defs>
</svg>
