<svg width="101" height="101" viewBox="0 0 101 101" fill="none" xmlns="http://www.w3.org/2000/svg">
<g clip-path="url(#clip0_12_14)">
<path d="M0 0H101V101H0V0Z" fill="#F0DB4F"/>
<path d="M92.7335 76.9117C91.9943 72.3033 88.9892 68.4342 80.0893 64.8243C76.9979 63.4034 73.5512 62.3858 72.5239 60.0431C72.1591 58.6798 72.1111 57.9118 72.3415 57.0861C73.004 54.4075 76.201 53.5722 78.7356 54.3403C80.3678 54.8875 81.9135 56.1453 82.8448 58.1518C87.2035 55.3293 87.1939 55.3484 90.2373 53.4091C89.1236 51.681 88.5284 50.884 87.7987 50.1448C85.1777 47.2166 81.6063 45.7093 75.8938 45.8245C74.9049 45.9493 73.9065 46.0836 72.9176 46.2085C70.0662 46.9286 67.3491 48.4263 65.7554 50.4329C60.9742 55.8573 62.3375 65.3524 68.1556 69.26C73.8872 73.5611 82.3071 74.5404 83.3824 78.5631C84.4289 83.4883 79.763 85.0819 75.1257 84.5156C71.7079 83.8051 69.807 82.0674 67.7524 78.9087C63.9698 81.0977 63.9698 81.0977 60.0814 83.3347C61.0031 85.3508 61.9727 86.2629 63.5185 88.0102C70.8343 95.4316 89.1428 95.0668 92.4264 83.8339C92.5607 83.4498 93.4441 80.8768 92.7335 76.9117ZM54.9065 46.4197H45.4594C45.4594 54.5803 45.4211 62.6833 45.4211 70.844C45.4211 76.038 45.6899 80.8 44.845 82.2593C43.4625 85.1298 39.8814 84.7747 38.2493 84.2178C36.5884 83.4017 35.7435 82.24 34.7642 80.5984C34.4954 80.1279 34.2938 79.7631 34.2265 79.7343C31.6632 81.2992 29.1093 82.8736 26.5459 84.4387C27.8229 87.0597 29.7045 89.3351 32.1143 90.8135C35.7146 92.9736 40.5534 93.6361 45.6131 92.4744C48.9062 91.5143 51.7479 89.5271 53.236 86.5028C55.3866 82.5377 54.9257 77.7373 54.9065 72.4281C54.9545 63.7682 54.9065 55.1083 54.9065 46.4197Z" fill="#323330"/>
</g>
<defs>
<clipPath id="clip0_12_14">
<rect width="101" height="101" fill="white"/>
</clipPath>
</defs>
</svg>
